HIERARCHY
ROOT Hips
{
	OFFSET 0.000000 0.000000 0.000000 
	CHANNELS 6 Xposition Yposition Zposition Zrotation Xrotation Yrotation
	JOINT Spine
	{
		OFFSET -0.000000 8.285670 0.000000 
		CHANNELS 3 Zrotation Xrotation Yrotation
		JOINT Spine1
		{
			OFFSET -0.000000 20.280901 0.000000 
			CHANNELS 3 Zrotation Xrotation Yrotation
			JOINT Neck
			{
				OFFSET -0.000000 22.301800 0.000000 
				CHANNELS 3 Zrotation Xrotation Yrotation
				JOINT Head
				{
					OFFSET -0.000000 15.661900 2.020890 
					CHANNELS 3 Zrotation Xrotation Yrotation
					End Site
					{
						OFFSET -0.000000 20.208887 0.000000 
					}
				}
			}
			JOINT LeftShoulder
			{
				OFFSET 3.887530 15.503099 -0.416373 
				CHANNELS 3 Zrotation Xrotation Yrotation
				JOINT LeftArm
				{
					OFFSET 20.767099 0.000000 0.000000 
					CHANNELS 3 Zrotation Xrotation Yrotation
					JOINT LeftForeArm
					{
						OFFSET 26.608500 0.000000 0.000000 
						CHANNELS 3 Zrotation Xrotation Yrotation
						JOINT LeftHand
						{
							OFFSET 25.563202 0.000000 0.000000 
							CHANNELS 3 Zrotation Xrotation Yrotation
							End Site
							{
								OFFSET 15.156667 0.000000 0.000000 
							}
						}
					}
				}
			}
			JOINT RightShoulder
			{
				OFFSET -4.190880 15.503099 -0.416373 
				CHANNELS 3 Zrotation Xrotation Yrotation
				JOINT RightArm
				{
					OFFSET -20.767099 0.000000 0.000000 
					CHANNELS 3 Zrotation Xrotation Yrotation
					JOINT RightForeArm
					{
						OFFSET -26.608500 0.000000 0.000000 
						CHANNELS 3 Zrotation Xrotation Yrotation
						JOINT RightHand
						{
							OFFSET -25.563202 0.000000 0.000000 
							CHANNELS 3 Zrotation Xrotation Yrotation
							End Site
							{
								OFFSET -15.156667 0.000000 0.000000 
							}
						}
					}
				}
			}
		}
	}
	JOINT LeftUpLeg
	{
		OFFSET 10.104500 0.000000 0.000000 
		CHANNELS 3 Zrotation Xrotation Yrotation
		JOINT LeftLeg
		{
			OFFSET -0.000000 -50.743301 0.000000 
			CHANNELS 3 Zrotation Xrotation Yrotation
			JOINT LeftFoot
			{
				OFFSET -0.000000 -35.579197 0.000000 
				CHANNELS 3 Zrotation Xrotation Yrotation
				JOINT LeftToeBase
				{
					OFFSET -0.000000 -6.567910 15.156700 
					CHANNELS 3 Zrotation Xrotation Yrotation
					End Site
					{
						OFFSET -0.000000 0.000000 4.041778 
					}
				}
			}
		}
	}
	JOINT RightUpLeg
	{
		OFFSET -10.104500 0.000000 0.000000 
		CHANNELS 3 Zrotation Xrotation Yrotation
		JOINT RightLeg
		{
			OFFSET -0.000000 -50.743301 0.000000 
			CHANNELS 3 Zrotation Xrotation Yrotation
			JOINT RightFoot
			{
				OFFSET -0.000000 -35.579197 0.000000 
				CHANNELS 3 Zrotation Xrotation Yrotation
				JOINT RightToeBase
				{
					OFFSET -0.000000 -6.567910 15.156700 
					CHANNELS 3 Zrotation Xrotation Yrotation
					End Site
					{
						OFFSET -0.000000 0.000000 4.041778 
					}
				}
			}
		}
	}
}
MOTION
Frames: 6
Frame Time: 0.010000
0.000000 90.158333 0.000000 -5.166181 6.481139 8.689813 0.318627 -9.554919 -2.802480 7.051613 6.787519 -1.360788 -3.385961 -7.047652 -2.473908 5.245367 14.870603 -4.131593 -2.699634 3.761347 -2.295965 -71.104187 37.057858 -15.739314 5.716084 1.653469 -14.149405 -21.343588 1.496788 4.604085 -13.155259 2.319430 -0.735344 69.081917 46.629658 18.687399 -3.131799 -0.984202 17.998346 18.259771 0.158989 4.027180 12.209649 -14.751000 2.597692 4.257252 30.569473 -60.582676 33.616722 -17.588043 61.668228 0.000000 0.000000 0.000000 -5.768629 -9.113190 -15.719870 4.443043 18.181028 -11.473392 6.598807 -25.467985 9.831347 0.000000 0.000000 0.000000 
0.000693 90.158768 0.001815 -5.163214 6.497181 8.690287 0.310856 -9.574771 -2.802743 7.055616 6.795789 -1.361420 -3.385585 -7.042839 -2.478517 5.247145 14.848964 -4.135972 -2.704968 3.776724 -2.288967 -71.104736 37.042206 -15.743995 5.724160 1.661683 -14.162855 -21.353954 1.504987 4.610864 -13.160019 2.312823 -0.728950 69.098869 46.616589 18.666822 -3.133688 -0.981794 18.002069 18.264545 0.161620 4.025536 12.201463 -14.768599 2.595666 4.287075 30.589066 -60.600899 33.595806 -17.555101 61.645962 0.000000 0.000000 0.000000 -5.774869 -9.127751 -15.718898 4.441681 18.181801 -11.469084 6.585806 -25.469530 9.832880 0.000000 0.000000 0.000000 
0.001363 90.159164 0.003688 -5.160289 6.512808 8.690548 0.303347 -9.594281 -2.802961 7.059342 6.804192 -1.362069 -3.384963 -7.038240 -2.483067 5.248813 14.827601 -4.140261 -2.709984 3.791630 -2.282031 -71.105560 37.026981 -15.748433 5.731891 1.669637 -14.175803 -21.363634 1.512943 4.617330 -13.164506 2.306530 -0.722748 69.115067 46.603779 18.647139 -3.135505 -0.979459 18.005669 18.269096 0.164316 4.023850 12.193497 -14.785603 2.593772 4.316008 30.607948 -60.618744 33.575611 -17.523209 61.624477 0.000000 0.000000 0.000000 -5.780971 -9.141758 -15.717893 4.440527 18.182451 -11.464626 6.573088 -25.471188 9.833868 0.000000 0.000000 0.000000 
0.001985 90.159515 0.005671 -5.157565 6.527583 8.690941 0.296208 -9.612920 -2.803255 7.062912 6.812507 -1.362673 -3.384408 -7.033806 -2.487427 5.250772 14.806664 -4.144435 -2.714751 3.805744 -2.275145 -71.106758 37.012310 -15.752351 5.738820 1.677232 -14.187990 -21.372040 1.520542 4.623352 -13.168733 2.300479 -0.716794 69.130287 46.591541 18.628510 -3.137166 -0.977081 18.009138 18.273252 0.166933 4.022136 12.185976 -14.801528 2.592180 4.343158 30.625406 -60.636314 33.556854 -17.492649 61.604836 0.000000 0.000000 0.000000 -5.786604 -9.154826 -15.717333 4.439137 18.182936 -11.460225 6.561641 -25.472889 9.835012 0.000000 0.000000 0.000000 
0.002526 90.159798 0.007799 -5.155130 6.541234 8.691218 0.289618 -9.630440 -2.803533 7.066334 6.820754 -1.363350 -3.383741 -7.029874 -2.491515 5.252683 14.786628 -4.148307 -2.719073 3.818780 -2.268325 -71.108513 36.998760 -15.755715 5.745021 1.684197 -14.198873 -21.378895 1.527509 4.628548 -13.172664 2.294810 -0.711198 69.144112 46.580132 18.611382 -3.138635 -0.974755 18.012466 18.277010 0.169527 4.020362 12.179217 -14.815997 2.590981 4.367603 30.640732 -60.653366 33.540054 -17.463726 61.587788 0.000000 0.000000 0.000000 -5.791566 -9.166607 -15.717107 4.437581 18.183121 -11.455873 6.551607 -25.474659 9.836022 0.000000 0.000000 0.000000 
0.002992 90.160004 0.010073 -5.152955 6.553714 8.691944 0.283551 -9.646670 -2.803849 7.069615 6.828769 -1.364021 -3.382908 -7.026605 -2.495160 5.254224 14.767830 -4.151680 -2.723142 3.830624 -2.261585 -71.110779 36.986202 -15.758267 5.750319 1.690534 -14.208522 -21.384073 1.533978 4.633050 -13.176121 2.289824 -0.706039 69.155968 46.569618 18.596319 -3.139892 -0.972372 18.015638 18.280407 0.171925 4.018471 12.173169 -14.828898 2.590320 4.388829 30.653500 -60.670105 33.525600 -17.436235 61.573990 0.000000 0.000000 0.000000 -5.795968 -9.177099 -15.717226 4.436053 18.183138 -11.451663 6.543107 -25.476530 9.836828 0.000000 0.000000 0.000000 
